<svg width="89" height="59" viewBox="0 0 89 59" fill="none" xmlns="http://www.w3.org/2000/svg">
<path fill-rule="evenodd" clip-rule="evenodd" d="M0 16.6192V58.0162H12.2661V39.2062H22.5776C27.0346 39.2062 30.8305 38.3847 33.9655 36.7417C37.1194 35.0987 39.5273 32.8041 41.1892 29.8579C42.8511 26.9118 43.6821 23.5124 43.6821 19.6598C43.6821 18.6128 43.6214 17.5993 43.5001 16.6192H30.6741C30.9232 17.5538 31.0477 18.5673 31.0477 19.6598C31.0477 21.5672 30.6606 23.2575 29.8863 24.7305C29.1308 26.1847 27.9788 27.3273 26.4302 28.1582C24.9005 28.9703 22.9553 29.3764 20.5946 29.3764H12.2661V16.6192H0ZM0 9.14058H41.0373C39.4206 6.32912 37.12 4.12267 34.1355 2.52121C31.0383 0.840404 27.2895 0 22.8892 0H0V9.14058ZM41.3521 9.14058H89.0001V0H41.3521V9.14058ZM71.2384 16.6192H59.1139V25.7598H71.2384V16.6192ZM59.1139 43.21V34.0694H71.2384V43.21H59.1139ZM71.2384 50.6886H59.1139V58.0162H71.2384V50.6886Z" fill="#F43E3E"/>
</svg>
